<svg width="352" height="726" viewBox="0 0 352 726" fill="none" xmlns="http://www.w3.org/2000/svg">
<path d="M23.1221 518.499C23.1221 505.896 13.0391 495.648 0.500016 495.382L0.5 0.500002L19.4128 0.500059C19.6788 13.0392 29.9267 23.1222 42.5296 23.1222C55.1325 23.1222 65.3803 13.0392 65.6464 0.500058L86.3742 0.500057C86.6402 13.0392 96.8881 23.1222 109.491 23.1222C122.094 23.1222 132.342 13.0392 132.608 0.500055L153.336 0.500054C153.602 13.0392 163.85 23.1222 176.452 23.1222C189.055 23.1222 199.303 13.0392 199.569 0.500052L220.297 0.500051C220.563 13.0392 230.811 23.1222 243.414 23.1222C256.017 23.1222 266.265 13.0392 266.531 0.50005L287.259 0.500049C287.525 13.0392 297.772 23.1222 310.375 23.1222C322.978 23.1222 333.226 13.0392 333.492 0.500045L351.5 0.499986L351.5 495.382C338.961 495.648 328.878 505.896 328.878 518.499C328.878 531.102 338.961 541.35 351.5 541.616V725.217L333.492 725.217C333.226 712.678 322.978 702.595 310.375 702.595C297.772 702.595 287.525 712.678 287.259 725.217H266.531C266.265 712.678 256.017 702.595 243.414 702.595C230.811 702.595 220.563 712.678 220.297 725.217H199.569C199.303 712.678 189.055 702.595 176.452 702.595C163.85 702.595 153.602 712.678 153.336 725.217H132.608C132.342 712.678 122.094 702.595 109.491 702.595C96.8881 702.595 86.6402 712.678 86.3742 725.217H65.6464C65.3804 712.678 55.1325 702.595 42.5296 702.595C29.9267 702.595 19.6788 712.678 19.4128 725.217H0.500032L0.500018 541.616C13.0391 541.35 23.1221 531.102 23.1221 518.499Z" fill="#F7F0E8" stroke="#652525"/>
</svg>
