<svg width="352" height="726" viewBox="0 0 352 726" fill="none" xmlns="http://www.w3.org/2000/svg">
<path d="M-8.06898e-06 541.121C12.4938 541.121 22.6221 530.992 22.6221 518.499C22.6219 506.2 12.8078 496.194 0.583974 495.884L-1.00467e-05 495.876L-3.17221e-05 0.000488281L19.9072 0.000487411C19.9074 12.4941 30.0357 22.6224 42.5293 22.6226C54.8277 22.6226 64.8346 12.8082 65.1445 0.58447L65.1513 0.000485433L86.8691 0.000484484C86.8693 12.4942 96.9975 22.6226 109.491 22.6226C121.79 22.6224 131.795 12.8082 132.105 0.584467L132.113 0.000482506L153.83 0.000481557C153.83 12.4941 163.959 22.6224 176.452 22.6226C188.751 22.6226 198.757 12.8082 199.067 0.584464L199.074 0.000479579L220.792 0.00047863C220.792 12.4942 230.92 22.6225 243.414 22.6225C255.712 22.6225 265.718 12.8082 266.028 0.584461L266.036 0.000476652L287.753 0.000475703C287.753 12.4941 297.881 22.6224 310.375 22.6225C322.673 22.6225 332.68 12.8082 332.99 0.584458L332.997 0.000473725L352 0.000472895L352 495.876C339.506 495.876 329.378 506.005 329.378 518.499C329.378 530.992 339.506 541.121 352 541.121L352 725.717L332.997 725.717C332.997 713.223 322.869 703.095 310.375 703.095C298.077 703.095 288.071 712.909 287.761 725.133L287.753 725.717L266.036 725.717C266.036 713.223 255.908 703.095 243.414 703.095C231.115 703.095 221.109 712.909 220.799 725.133L220.792 725.717L199.074 725.717C199.074 713.223 188.946 703.095 176.452 703.095C164.154 703.095 154.148 712.909 153.838 725.133L153.83 725.717L132.113 725.717C132.113 713.224 121.985 703.095 109.491 703.095C97.1926 703.095 87.1857 712.909 86.876 725.133L86.8691 725.717L65.1514 725.717C65.1513 713.223 55.0231 703.095 42.5293 703.095C30.2308 703.095 20.2248 712.909 19.915 725.133L19.9072 725.717L0 725.717L-8.06898e-06 541.121Z" fill="#F5F5DC"/>
</svg>
